<?xml version="1.0" encoding="iso-8859-1"?>
<!-- Uploaded to: SVG Repo, www.svgrepo.com, Generator: SVG Repo Mixer Tools -->
<svg fill="#000000" height="800px" width="800px" version="1.1" id="Layer_1" xmlns="http://www.w3.org/2000/svg" xmlns:xlink="http://www.w3.org/1999/xlink" 
	 viewBox="0 0 512 512" xml:space="preserve">
<g>
	<g>
		<path d="M418.117,118.823c-0.193-8.938-7.624-16.209-16.564-16.209h-77.679V67.875C323.875,30.448,293.426,0,256,0
			s-67.875,30.448-67.875,67.875v34.739h-77.679c-8.939,0-16.37,7.271-16.564,16.208l-8.179,376.251
			c-0.098,4.493,1.579,8.735,4.721,11.947c3.143,3.212,7.349,4.981,11.842,4.981h307.465c4.494,0,8.7-1.769,11.842-4.981
			c3.143-3.212,4.82-7.456,4.721-11.947L418.117,118.823z M315.858,152.852c5.01,0,9.086,4.076,9.086,9.086
			s-4.076,9.086-9.086,9.086c-5.01,0-9.086-4.076-9.086-9.086S310.848,152.852,315.858,152.852z M196.142,152.852
			c5.01,0,9.086,4.076,9.086,9.086s-4.076,9.086-9.086,9.086s-9.086-4.076-9.086-9.086S191.132,152.852,196.142,152.852z
			 M410.115,495.806c-0.157,0.16-0.326,0.16-0.382,0.16H102.267c-0.056,0-0.224,0-0.382-0.16s-0.154-0.329-0.153-0.385
			l8.179-376.251c0.006-0.289,0.246-0.523,0.534-0.523h77.679v19.49c-9.93,3.354-17.102,12.752-17.102,23.8
			c0,13.851,11.268,25.119,25.119,25.119s25.119-11.268,25.119-25.119c0-11.048-7.172-20.446-17.102-23.8v-19.491h77.494
			c4.427,0,8.017-3.589,8.017-8.017s-3.589-8.017-8.017-8.017h-77.494V67.875c0-28.585,23.256-51.841,51.841-51.841
			s51.841,23.256,51.841,51.841v70.263c-9.93,3.354-17.102,12.752-17.102,23.8c0,13.851,11.268,25.119,25.119,25.119
			c13.851,0,25.119-11.268,25.119-25.119c0-11.048-7.172-20.446-17.102-23.8v-19.49h77.679c0.289,0,0.528,0.234,0.534,0.523
			l8.179,376.251C410.268,495.477,410.272,495.646,410.115,495.806z"/>
	</g>
</g>
<g>
	<g>
		<path d="M384.267,461.762h-17.105c-4.427,0-8.017,3.589-8.017,8.017c0,4.427,3.589,8.017,8.017,8.017h17.105
			c4.427,0,8.017-3.589,8.017-8.017C392.284,465.351,388.695,461.762,384.267,461.762z"/>
	</g>
</g>
<g>
	<g>
		<path d="M332.96,461.762H127.733c-4.427,0-8.017,3.589-8.017,8.017c0,4.427,3.589,8.017,8.017,8.017H332.96
			c4.427,0,8.017-3.589,8.017-8.017C340.977,465.351,337.389,461.762,332.96,461.762z"/>
	</g>
</g>
<g>
	<g>
		<path d="M338.629,241.781c-3.131-3.131-8.207-3.131-11.337,0L173.371,395.701c-3.131,3.13-3.131,8.207,0,11.337
			c1.565,1.565,3.617,2.348,5.668,2.348s4.103-0.782,5.668-2.348l153.921-153.921C341.759,249.986,341.759,244.91,338.629,241.781z"
			/>
	</g>
</g>
<g>
	<g>
		<path d="M204.693,230.881c-23.281,0-42.221,18.941-42.221,42.221s18.941,42.221,42.221,42.221s42.221-18.941,42.221-42.221
			S227.974,230.881,204.693,230.881z M204.693,299.29c-14.44,0-26.188-11.748-26.188-26.188s11.748-26.188,26.188-26.188
			s26.188,11.748,26.188,26.188S219.133,299.29,204.693,299.29z"/>
	</g>
</g>
<g>
	<g>
		<path d="M307.307,333.495c-23.281,0-42.221,18.941-42.221,42.221c0,23.281,18.941,42.221,42.221,42.221
			s42.221-18.941,42.221-42.221C349.528,352.436,330.587,333.495,307.307,333.495z M307.307,401.904
			c-14.44,0-26.188-11.748-26.188-26.188s11.748-26.188,26.188-26.188s26.188,11.748,26.188,26.188S321.747,401.904,307.307,401.904
			z"/>
	</g>
</g>
</svg>